<?xml version="1.0" encoding="UTF-8" standalone="no"?>
<!DOCTYPE svg PUBLIC "-//W3C//DTD SVG 1.1//EN" "http://www.w3.org/Graphics/SVG/1.1/DTD/svg11.dtd">
<svg width="100%" height="100%" viewBox="0 0 6750 4500" version="1.1" xmlns="http://www.w3.org/2000/svg" xmlns:xlink="http://www.w3.org/1999/xlink" xml:space="preserve" xmlns:serif="http://www.serif.com/" style="fill-rule:evenodd;clip-rule:evenodd;stroke-linejoin:round;stroke-miterlimit:2;">
    <g transform="matrix(1,0,0,1,0,-4709)">
        <g id="h-h_logo_full_dark" transform="matrix(2.361241,0,0,2.55102,-7870.802239,4007.469388)">
            <rect x="3333.333" y="275" width="2858.667" height="1764" style="fill:none;"/>
            <g transform="matrix(1,0,0,1,5.281544,-0)">
                <g transform="matrix(0.491306,0,0,0.454756,2951.189213,357.765661)">
                    <path d="M1215.5,1928L1215.5,1762.5L1601.5,1762.5L1601.5,1928L1631,1928L1631,1587L1601.5,1587L1601.5,1736L1215.5,1736L1215.5,1587L1186,1587L1186,1928L1215.5,1928Z" style="fill:rgb(15,15,15);fill-rule:nonzero;"/>
                    <path d="M1965.5,1933.5C2141.5,1933.5 2226,1881 2226,1757.5C2226,1634 2141.5,1581.5 1965.5,1581.5C1789.5,1581.5 1705,1634 1705,1757.5C1705,1881 1789.5,1933.5 1965.5,1933.5ZM1965.5,1906.5C1796,1906.5 1734.5,1858 1734.5,1757.5C1734.5,1657 1796,1608.5 1965.5,1608.5C2135,1608.5 2196,1657 2196,1757.5C2196,1858 2135,1906.5 1965.5,1906.5Z" style="fill:rgb(15,15,15);fill-rule:nonzero;"/>
                    <path d="M2426.5,1928L2463,1928L2644.5,1612L2825.5,1928L2861.5,1928L3040,1587L3007,1587L2843,1901L2663,1587L2625,1587L2445.5,1901L2281,1587L2248,1587L2426.5,1928Z" style="fill:rgb(15,15,15);fill-rule:nonzero;"/>
                    <path d="M3529.5,1928L3529.5,1903L3127.5,1903L3127.5,1764.5L3519.5,1764.5L3519.5,1742L3127.5,1742L3127.5,1612L3529.5,1612L3529.5,1587L3098,1587L3098,1928L3529.5,1928Z" style="fill:rgb(15,15,15);fill-rule:nonzero;"/>
                    <path d="M3797,1613L3797,1928L3826.5,1928L3826.5,1613L4034.5,1613L4034.5,1587L3588.5,1587L3588.5,1613L3797,1613Z" style="fill:rgb(15,15,15);fill-rule:nonzero;"/>
                    <g transform="matrix(1,0,0,1,147.124227,0)">
                        <path d="M4975.5,1928L5011.5,1928L4762.5,1587L4724.5,1587L4475,1928L4511,1928L4574.5,1841L4912.5,1841L4975.5,1928ZM4591.5,1817.5L4743.5,1608.5L4895,1817.5L4591.5,1817.5Z" style="fill:rgb(15,15,15);fill-rule:nonzero;"/>
                    </g>
                    <g transform="matrix(1,0,0,1,147.124227,0)">
                        <path d="M5086,1928L5086,1799L5292,1799L5446,1928L5485,1928L5360,1823.5L5327,1798L5377,1798C5459,1797 5495.5,1762.5 5495.5,1692.5C5495.5,1620.5 5456.5,1587 5373.5,1587L5056.5,1587L5056.5,1928L5086,1928ZM5086,1613L5374,1613C5439,1613 5465.5,1636.5 5465.5,1694C5465.5,1751 5439,1774.5 5374,1774.5L5086,1774.5L5086,1613Z" style="fill:rgb(15,15,15);fill-rule:nonzero;"/>
                    </g>
                    <g transform="matrix(1,0,0,1,147.124227,0)">
                        <path d="M5576,1928L5605.5,1928L5605.5,1792.5L5897.5,1792.5C5980.5,1792.5 6019.5,1759.5 6019.5,1689C6019.5,1619.5 5980.5,1587 5897.5,1587L5576,1587L5576,1928ZM5897.5,1613C5962.5,1613 5989.5,1635 5989.5,1690C5989.5,1744.5 5962.5,1766.5 5897.5,1766.5L5605.5,1766.5L5605.5,1613L5897.5,1613Z" style="fill:rgb(15,15,15);fill-rule:nonzero;"/>
                    </g>
                </g>
                <g transform="matrix(1.160093,0,0,1.160093,-475.298513,-424.918528)">
                    <g transform="matrix(0.423506,0,0,0.392,4022.785726,659.973771)">
                        <path d="M1959.5,1579.5L1932.5,1579.5L1677.5,2010.5L1705,2010.5L1959.5,1579.5Z" style="fill:rgb(15,15,15);fill-rule:nonzero;"/>
                    </g>
                    <g transform="matrix(0.423506,0,0,0.392,4143.880726,78.049771)">
                        <path d="M1570.273,3284.634L1586,3258L1728.5,3258L1728.5,3109L1758,3109L1758,3450L1728.5,3450L1728.5,3284.5L1570.273,3284.634Z" style="fill:rgb(15,15,15);"/>
                    </g>
                    <g transform="matrix(0.423506,0,0,0.392,4131.191334,78.049771)">
                        <path d="M1535.5,3258L1519.042,3284.5L1342.5,3284.5L1342.5,3450L1313,3450L1313,3109L1342.5,3109L1342.5,3258L1535.5,3258Z" style="fill:rgb(15,15,15);"/>
                    </g>
                </g>
            </g>
        </g>
    </g>
</svg>
