<?xml version="1.0" encoding="UTF-8" standalone="no"?>
<!DOCTYPE svg PUBLIC "-//W3C//DTD SVG 1.1//EN" "http://www.w3.org/Graphics/SVG/1.1/DTD/svg11.dtd">
<svg width="100%" height="100%" viewBox="0 0 4500 4500" version="1.1" xmlns="http://www.w3.org/2000/svg" xmlns:xlink="http://www.w3.org/1999/xlink" xml:space="preserve" xmlns:serif="http://www.serif.com/" style="fill-rule:evenodd;clip-rule:evenodd;stroke-linejoin:round;stroke-miterlimit:2;">
    <g transform="matrix(1,0,0,1,-6958,-4709)">
        <g id="h-h_logo_mark-dark" transform="matrix(0.666667,0,0,1,2319.111111,4709)">
            <rect x="6958.333" y="0" width="6750" height="4500" style="fill:none;"/>
            <g transform="matrix(12.326662,0,0,8.878261,-48733.976967,-9856.519347)">
                <g transform="matrix(0.423506,0,0,0.392,4031.891109,659.973771)">
                    <path d="M1959.5,1579.5L1932.5,1579.5L1677.5,2010.5L1705,2010.5L1959.5,1579.5Z" style="fill:rgb(15,15,15);"/>
                </g>
                <g transform="matrix(0.423506,0,0,0.392,4152.986109,78.049771)">
                    <path d="M1570.273,3284.634L1586,3258L1728.5,3258L1728.5,3109L1758,3109L1758,3450L1728.5,3450L1728.5,3284.5L1570.273,3284.634Z" style="fill:rgb(15,15,15);"/>
                </g>
                <g transform="matrix(0.423506,0,0,0.392,4140.296717,78.049771)">
                    <path d="M1535.5,3258L1519.042,3284.5L1342.5,3284.5L1342.5,3450L1313,3450L1313,3109L1342.5,3109L1342.5,3258L1535.5,3258Z" style="fill:rgb(15,15,15);"/>
                </g>
            </g>
        </g>
    </g>
</svg>
