<svg xmlns="http://www.w3.org/2000/svg" viewBox="0 0 1600 1100" role="img" aria-labelledby="title desc">
  <title id="title">Build type image placeholder</title>
  <desc id="desc">Drafting-inspired placeholder for build type photography that has not been added yet.</desc>
  <rect width="1600" height="1100" fill="#f8f3e9"/>
  <rect x="70" y="70" width="1460" height="960" rx="30" fill="none" stroke="#11110f" stroke-opacity=".18"/>
  <rect x="110" y="110" width="1380" height="880" rx="24" fill="none" stroke="#11110f" stroke-opacity=".1"/>
  <g stroke="#11110f" stroke-opacity=".08">
    <path d="M0 220h1600"/>
    <path d="M0 440h1600"/>
    <path d="M0 660h1600"/>
    <path d="M0 880h1600"/>
    <path d="M320 0v1100"/>
    <path d="M640 0v1100"/>
    <path d="M960 0v1100"/>
    <path d="M1280 0v1100"/>
  </g>
  <g fill="none" stroke="#0f4d0f" stroke-width="6" stroke-opacity=".7">
    <path d="M360 780v-220l180-130 170 90 170-190 170 120 190-70 0 400"/>
    <path d="M360 780h880"/>
  </g>
  <g fill="#11110f">
    <text x="200" y="240" font-family="'IBM Plex Mono', monospace" font-size="36" letter-spacing="7" text-transform="uppercase">HOWETH &amp; HARP</text>
    <text x="200" y="330" font-family="'IBM Plex Sans', sans-serif" font-size="96" font-weight="600">Build-Type Image Pending</text>
    <text x="200" y="410" font-family="'IBM Plex Sans', sans-serif" font-size="34" fill-opacity=".68">The seeded content and routing are live now, and final project visuals can replace this placeholder later.</text>
  </g>
</svg>
